<?xml version="1.0" standalone="no"?>
<!DOCTYPE svg PUBLIC "-//W3C//DTD SVG 20010904//EN"
 "http://www.w3.org/TR/2001/REC-SVG-20010904/DTD/svg10.dtd">
<svg version="1.0" xmlns="http://www.w3.org/2000/svg"
 width="512.000000pt" height="512.000000pt" viewBox="0 0 512.000000 512.000000"
 preserveAspectRatio="xMidYMid meet">

<g transform="translate(0.000000,512.000000) scale(0.100000,-0.100000)"
fill="#000000" stroke="none">
<path d="M1061 3295 c-109 -31 -182 -75 -272 -165 -98 -97 -154 -193 -189
-326 -23 -88 -27 -240 -9 -326 21 -96 83 -198 123 -198 16 0 25 -9 34 -33 22
-60 112 -137 161 -137 14 0 33 8 44 18 23 19 19 12 -26 -55 -39 -59 -46 -106
-19 -142 18 -25 19 -34 10 -72 -13 -56 -5 -147 16 -187 20 -38 59 -51 95 -31
25 14 28 12 87 -47 l60 -61 -171 -6 c-176 -7 -231 -15 -204 -33 33 -21 3601
-23 3658 -2 42 15 8 31 -79 36 l-81 5 35 29 c19 16 50 58 68 95 27 55 32 77
32 133 -2 158 -106 270 -276 295 l-46 7 -6 66 c-4 37 -10 82 -13 100 -5 29 -3
32 18 32 48 0 101 22 141 58 122 110 98 301 -47 368 -82 39 -183 27 -241 -27
l-20 -19 -53 65 c-161 198 -428 296 -758 278 l-99 -6 -39 53 c-104 141 -279
236 -461 247 -196 12 -351 -44 -493 -180 -45 -44 -49 -45 -96 -39 -34 3 -62
15 -92 38 -74 57 -218 98 -261 75 -16 -9 -30 -5 -77 24 -95 57 -166 77 -290
81 -78 3 -126 -1 -164 -11z m318 -61 c81 -27 174 -87 182 -116 6 -22 4 -24
-22 -20 -28 4 -99 -14 -99 -26 0 -4 -4 -13 -9 -20 -6 -10 -15 -9 -42 7 -120
71 -324 60 -396 -21 -18 -21 -18 -21 7 -14 94 26 171 37 219 32 62 -7 161 -48
188 -78 17 -19 17 -20 -12 -41 -115 -82 -245 -244 -316 -392 -45 -95 -99 -269
-99 -321 0 -22 -3 -23 -20 -14 -25 13 -40 5 -40 -20 0 -10 -4 -21 -8 -24 -14
-8 -72 32 -84 59 -6 14 -14 25 -18 25 -10 0 -34 59 -27 67 3 3 -1 12 -9 20 -8
8 -12 18 -10 22 3 4 -5 7 -16 6 -12 -1 -24 -7 -26 -13 -2 -7 -8 -12 -14 -12
-6 0 -8 7 -4 15 3 8 0 14 -6 12 -7 -1 -23 25 -37 58 -33 81 -41 240 -17 347
51 229 216 415 423 474 67 19 242 13 312 -12z m1255 6 c294 -75 483 -359 436
-657 -7 -49 -12 -124 -11 -168 3 -77 2 -79 -16 -64 -23 21 -60 30 -60 15 0
-32 -26 -146 -34 -146 -5 0 -6 -6 -3 -14 9 -23 -12 -27 -31 -6 -20 22 -50 26
-60 9 -4 -6 -14 -8 -22 -5 -8 3 -11 2 -8 -4 9 -15 -47 -39 -78 -33 -15 3 -27
2 -27 -2 0 -4 23 -32 50 -62 28 -30 47 -60 44 -65 -4 -6 1 -17 11 -24 17 -12
32 -94 17 -94 -3 0 -18 12 -33 26 l-27 26 -22 -22 c-20 -20 -21 -23 -5 -40 9
-10 17 -30 19 -44 1 -14 6 -29 9 -33 9 -8 9 -50 1 -80 -9 -32 -27 -29 -63 12
-17 19 -37 35 -45 35 -8 0 -25 -24 -39 -53 -43 -94 -121 -152 -262 -193 -52
-15 -120 -18 -515 -22 -325 -3 -474 -1 -520 8 -73 13 -156 50 -153 68 2 7 -4
9 -14 5 -13 -5 -15 -2 -10 11 4 10 3 15 -3 11 -13 -8 -44 27 -75 87 -14 26
-30 50 -36 54 -15 9 -29 -15 -27 -46 4 -55 -34 -69 -51 -19 -14 40 -14 92 0
144 23 87 23 84 -5 95 -14 5 -26 17 -26 25 0 21 27 72 60 115 23 29 29 49 34
113 8 86 42 214 80 301 62 140 215 329 334 410 l41 28 41 -20 c23 -11 36 -22
31 -23 -6 -2 21 -5 60 -7 56 -2 80 2 115 19 54 25 49 40 -8 27 -48 -10 -109
-3 -153 20 -41 20 -95 62 -95 73 0 14 81 10 125 -6 22 -8 48 -15 58 -15 24 0
22 33 -4 56 -23 20 -49 66 -49 84 0 33 175 -31 248 -90 31 -25 44 -29 70 -24
25 5 32 3 32 -10 0 -32 35 -14 111 59 162 154 356 208 563 155z m689 -280 c53
-5 125 -17 160 -25 85 -22 210 -85 279 -140 182 -146 298 -440 298 -757 0 -75
12 -87 31 -33 14 39 24 41 97 23 89 -22 162 -84 182 -156 39 -142 -36 -283
-176 -327 -50 -15 -80 -16 -306 -9 -137 5 -252 6 -254 2 -2 -3 -13 -4 -24 -1
-20 5 -20 6 -1 32 11 15 23 39 26 54 4 15 10 25 14 23 15 -9 12 165 -4 219
-18 64 -77 135 -135 165 -74 38 -229 58 -305 41 -29 -7 -29 -8 15 -15 241 -42
338 -98 369 -211 14 -50 14 -142 1 -150 -6 -4 -8 -10 -5 -15 9 -15 -38 -101
-53 -95 -7 3 -10 0 -7 -6 4 -6 -1 -17 -11 -24 -16 -12 -105 -14 -509 -15
l-490 0 60 40 c33 22 57 40 53 40 -4 0 4 12 17 26 13 14 27 34 30 44 6 18 8
17 42 -6 45 -30 64 -30 92 0 29 31 44 88 36 137 -6 37 -5 39 18 39 20 0 28 7
37 36 18 55 -9 151 -58 207 -15 17 -15 20 8 37 24 18 25 18 47 -2 45 -42 88
-7 118 96 14 46 20 56 34 51 10 -3 29 3 42 14 22 17 23 26 25 127 0 60 4 148
9 195 9 99 -4 194 -39 281 l-23 57 56 4 c31 2 67 4 81 5 14 1 69 -3 123 -8z
m871 -294 c48 -28 86 -89 86 -138 0 -46 -19 -100 -33 -91 -6 4 -7 1 -2 -7 11
-18 -50 -66 -102 -80 -48 -12 -67 -6 -59 17 3 8 2 12 -3 9 -4 -3 -16 22 -25
56 -9 34 -32 92 -51 129 l-33 67 21 20 c51 48 137 56 201 18z"/>
<path d="M2338 3111 c-72 -24 -117 -52 -162 -101 -51 -56 -63 -122 -18 -93 14
8 25 7 48 -6 62 -33 125 -85 119 -98 -3 -8 0 -11 6 -7 11 6 99 -73 99 -89 0
-5 10 -17 22 -26 21 -17 17 -48 -4 -35 -7 4 -8 2 -4 -5 5 -8 12 -9 20 -2 9 8
21 -5 45 -47 18 -31 37 -64 42 -72 13 -23 38 -77 71 -158 27 -68 28 -75 14
-91 -45 -50 20 -54 93 -5 39 25 81 79 81 103 0 6 -23 -3 -51 -20 -27 -17 -51
-30 -53 -28 -1 2 -13 33 -26 69 -32 91 -84 193 -141 276 -62 89 -198 221 -266
260 -29 16 -53 32 -53 36 0 13 61 50 114 68 155 55 322 26 454 -79 73 -58 65
-32 -15 48 -88 88 -148 113 -283 118 -73 2 -108 -1 -152 -16z"/>
<path d="M2406 2727 c3 -10 9 -15 12 -12 3 3 0 11 -7 18 -10 9 -11 8 -5 -6z"/>
<path d="M1524 2261 c-70 -52 -118 -134 -133 -231 -19 -119 21 -211 109 -252
43 -20 51 -28 56 -58 15 -84 40 -92 49 -16 l7 55 42 6 c87 15 137 63 157 148
10 46 9 66 -6 133 -9 43 -18 87 -18 96 -1 9 -4 16 -8 15 -4 -1 -18 14 -31 33
-13 19 -43 49 -66 67 -57 43 -103 44 -158 4z"/>
<path d="M1130 2167 c0 -26 40 -66 75 -76 48 -13 98 3 129 40 44 52 34 61 -29
29 -50 -25 -85 -25 -135 0 -31 16 -40 17 -40 7z"/>
<path d="M1850 2171 c0 -20 53 -70 85 -81 29 -9 41 -8 79 8 42 19 86 66 73 79
-4 3 -29 -4 -56 -16 -62 -26 -86 -26 -134 -1 -42 23 -47 24 -47 11z"/>
<path d="M2656 1633 c-6 -14 -5 -15 5 -6 7 7 10 15 7 18 -3 3 -9 -2 -12 -12z"/>
</g>
</svg>
